# xmcd
#
# Track frame offsets:
#	225
#	14619
#	28468
#	43322
#	61259
#	79983
#	97173
#	113727
#	130896
#	146125
#	161452
#	176611
#	191930
#	207266
#
# Disc length: 2977 seconds
#
# Revision: 0
# Processed by: cddbd v1.4PL0 Copyright (c) Steve Scherf et al.
# Submitted via: audiograbber 1.81.02
#
DISCID=d70b9e0e
DTITLE=manuela - Sommer Schlager Träume cd1
DYEAR=1900
DGENRE=
TTITLE0=Costa Cordalis - steig' in das Boot Anna - Lena
TTITLE1=Bata Illic - ich hab' noch den Sand in den Schuhen von Hawaii
TTITLE2=Bernhard Brink - ich hab' den Koffer in der Hand
TTITLE3=Camillo Felgen - la Lontananza
TTITLE4=Bernd Clüver - kleine Sonja
TTITLE5=die Mooskirchner - heisser Sand and Tequila
TTITLE6=die Muntermacher - Casablanca
TTITLE7=Roland B. - Lena - steig' in mein rotes Cabriolet
TTITLE8=Jürgen Marcus - nur Du
TTITLE9=Peggy March - fly fly away
TTITLE10=Peter Orloff - immer wenn ich Josy seh'
TTITLE11=Solid Gold - eine Reise in die Zärtlichkeit
TTITLE12=Nina and Mike - Paloma Blanca
TTITLE13=Frank David - o sole mio
EXTD=
EXTT0=
EXTT1=
EXTT2=
EXTT3=
EXTT4=
EXTT5=
EXTT6=
EXTT7=
EXTT8=
EXTT9=
EXTT10=
EXTT11=
EXTT12=
EXTT13=
PLAYORDER=
